<?xml version="1.0" encoding="utf-8"?>
<!-- Generator: Adobe Illustrator 20.1.0, SVG Export Plug-In . SVG Version: 6.00 Build 0)  -->
<svg version="1.1" id="Layer_1" xmlns="http://www.w3.org/2000/svg" xmlns:xlink="http://www.w3.org/1999/xlink" x="0px" y="0px"
	 viewBox="0 0 24 24" style="enable-background:new 0 0 24 24;" xml:space="preserve">
<style type="text/css">
	.st0{fill:#E62117;}
</style>
<path class="st0" d="M10.9,13.9h0.7v3.8h-0.7v-0.4c-0.1,0.2-0.3,0.3-0.4,0.4c-0.4,0.2-0.9,0.2-0.9-0.6v-3.2h0.7v2.9
	c0,0.2,0,0.3,0.2,0.3c0.1,0,0.3-0.2,0.4-0.3L10.9,13.9L10.9,13.9z M11.6,9.8c0.2,0,0.3-0.2,0.3-0.4V7.5c0-0.2-0.1-0.4-0.3-0.4
	c-0.2,0-0.3,0.2-0.3,0.4v1.9C11.2,9.6,11.4,9.8,11.6,9.8z M9.6,12.6H7.2v0.7H8v4.4h0.8v-4.4h0.8V12.6z M14.3,14.8v2.1
	c0,0.5-0.2,0.8-0.6,0.8c-0.3,0-0.5-0.1-0.7-0.3v0.3h-0.7v-5.1H13v1.7c0.2-0.2,0.4-0.4,0.6-0.4C14.2,13.9,14.3,14.3,14.3,14.8z
	 M13.6,14.9c0-0.1,0-0.2-0.1-0.3c-0.1-0.1-0.2-0.1-0.4-0.1L13,14.6V17l0.2,0.1c0.1,0.1,0.3,0.1,0.4,0c0-0.1,0.1-0.1,0.1-0.3
	L13.6,14.9L13.6,14.9z M24,12c0,6.6-5.4,12-12,12S0,18.6,0,12S5.4,0,12,0S24,5.4,24,12z M13.3,9.7c0,0.4,0.1,0.7,0.5,0.7
	c0.2,0,0.5-0.1,0.9-0.5v0.4h0.7v-4h-0.7v3c-0.1,0.1-0.3,0.3-0.4,0.3C14,9.7,14,9.6,14,9.5V6.4h-0.7C13.3,6.4,13.3,9.7,13.3,9.7z
	 M10.5,7.5v2c0,0.7,0.4,1.1,1.1,1.1c0.6,0,1.1-0.4,1.1-1.1v-2c0-0.6-0.5-1.1-1.1-1.1C10.9,6.4,10.5,6.8,10.5,7.5z M7.7,5l1,3.2v2.2
	h0.8V8.2l1-3.2H9.7L9.1,7.2L8.6,5C8.6,5,7.7,5,7.7,5z M17.8,15.2c0-2.6-0.2-3.6-1.8-3.7c-1.5-0.1-6.5-0.1-8,0
	c-1.6,0.1-1.8,1.1-1.8,3.7c0,2.6,0.2,3.6,1.8,3.7c1.5,0.1,6.5,0.1,8,0C17.6,18.8,17.8,17.8,17.8,15.2z M16.9,15v1h-1.4v0.7
	c0,0.3,0,0.5,0.3,0.5c0.3,0,0.3-0.2,0.3-0.5v-0.3h0.7v0.3c0,0.7-0.3,1.2-1.1,1.2c-0.7,0-1-0.5-1-1.2V15c0-0.7,0.4-1.1,1.1-1.1
	C16.6,13.8,16.9,14.3,16.9,15z M16.2,14.9c0-0.3-0.1-0.4-0.3-0.4c-0.3,0-0.3,0.2-0.3,0.4v0.4h0.6V14.9z"/>
</svg>
